<svg width="40" height="40" viewBox="0 0 32 32" fill="none" xmlns="http://www.w3.org/2000/svg">
  <path fill-rule="evenodd" clip-rule="evenodd" d="M16 32C20.2435 32 24.3131 30.3143 27.3137 27.3137C30.3143 24.3131 32 20.2435 32 16C32 11.7565 30.3143 7.68687 27.3137 4.68629C24.3131 1.68571 20.2435 0 16 0C11.7565 0 7.68687 1.68571 4.68629 4.68629C1.68571 7.68687 0 11.7565 0 16C0 20.2435 1.68571 24.3131 4.68629 27.3137C7.68687 30.3143 11.7565 32 16 32ZM12 10C11.4477 10 11 10.4477 11 11V21C11 21.5523 11.4477 22 12 22H14C14.5523 22 15 21.5523 15 21V11C15 10.4477 14.5523 10 14 10H12ZM18 10C17.4477 10 17 10.4477 17 11V21C17 21.5523 17.4477 22 18 22H20C20.5523 22 21 21.5523 21 21V11C21 10.4477 20.5523 10 20 10H18Z" fill="white"/>
</svg>